<?xml version="1.0" encoding="utf-8"?>
<!DOCTYPE svg PUBLIC "-//W3C//DTD SVG 1.1//EN" "http://www.w3.org/Graphics/SVG/1.1/DTD/svg11.dtd">
<svg version="1.1" id="Layer_1" xmlns="http://www.w3.org/2000/svg" xmlns:xlink="http://www.w3.org/1999/xlink" x="0px" y="0px"
	 width="32px" height="32px" viewBox="0 0 32 32" enable-background="new 0 0 32 32" xml:space="preserve">
<path d="M16,32C7.176,32,0,24.82,0,16C0,7.176,7.176,0,16,0s16,7.176,16,16C32,24.82,24.824,32,16,32z M16,3C8.83,3,3,8.83,3,16
	c0,7.166,5.83,12.999,13,12.999S29,23.166,29,16C29,8.83,23.17,3,16,3z M15,15H8V8h7V15z M10,13h3v-3h-3V13z M24,15h-7V8h7V15z
	 M19,13h3v-3h-3V13z M15,24H8v-7h7V24z M10,22h3v-3h-3V22z M24,24h-7v-7h7V24z M19,22h3v-3h-3V22z"/>
</svg>
