<?xml version="1.0" encoding="utf-8"?>
<!DOCTYPE svg PUBLIC "-//W3C//DTD SVG 1.1//EN" "http://www.w3.org/Graphics/SVG/1.1/DTD/svg11.dtd">
<svg version="1.1" id="Layer_1" xmlns="http://www.w3.org/2000/svg" xmlns:xlink="http://www.w3.org/1999/xlink" x="0px" y="0px"
	 width="32px" height="32px" viewBox="0 0 32 32" enable-background="new 0 0 32 32" xml:space="preserve">
<path d="M16,32C7.176,32,0,24.82,0,16C0,7.176,7.176,0,16,0s16,7.176,16,16C32,24.82,24.824,32,16,32z M16,3C8.83,3,3,8.83,3,16
	c0,7.166,5.83,12.999,13,12.999S29,23.166,29,16C29,8.83,23.17,3,16,3z M23.395,8.606c-0.227-0.224-0.554-0.314-0.866-0.224
	L12.005,11.4c-0.294,0.083-0.522,0.313-0.605,0.606L8.381,22.527c-0.09,0.312-0.003,0.644,0.225,0.872
	C8.774,23.565,9,23.656,9.232,23.656l0.244-0.036l10.522-3.02c0.292-0.082,0.523-0.315,0.605-0.609l3.019-10.519
	C23.71,9.167,23.622,8.835,23.395,8.606z M10.518,21.485l2.446-8.517l6.072,6.075L10.518,21.485z"/>
</svg>
